<?xml version="1.0" standalone="no"?>
<!DOCTYPE svg PUBLIC "-//W3C//DTD SVG 20010904//EN"
 "http://www.w3.org/TR/2001/REC-SVG-20010904/DTD/svg10.dtd">
<svg version="1.0" xmlns="http://www.w3.org/2000/svg"
 width="659.000000pt" height="625.000000pt" viewBox="0 0 659.000000 625.000000"
 preserveAspectRatio="xMidYMid meet">

<g transform="translate(0.000000,625.000000) scale(0.100000,-0.100000)"
fill="#000000" stroke="none">
<path d="M3255 6146 c-264 -56 -423 -113 -592 -212 -285 -167 -516 -444 -628
-754 -39 -109 -74 -289 -81 -415 -9 -175 1 -181 203 -145 170 30 276 58 289
76 7 8 27 74 44 147 62 250 114 349 264 502 85 86 100 97 216 153 157 75 312
128 425 143 54 7 171 9 313 6 224 -4 228 -5 347 -40 345 -102 617 -257 917
-524 458 -407 771 -1067 820 -1730 29 -392 -64 -868 -241 -1238 -143 -298
-259 -459 -543 -753 -222 -230 -224 -232 -257 -315 -33 -85 -127 -262 -187
-352 -18 -27 -72 -97 -120 -155 -104 -126 -114 -144 -91 -167 23 -23 63 -9
249 85 831 421 1397 1130 1618 2025 68 273 75 341 75 702 0 355 -7 424 -61
670 -129 582 -384 1045 -814 1476 -477 478 -896 716 -1425 810 -96 17 -171 22
-375 25 -237 3 -263 2 -365 -20z"/>
<path d="M1924 6006 c-253 -117 -513 -280 -704 -442 -218 -184 -261 -228 -436
-444 -280 -346 -497 -799 -599 -1250 -53 -233 -60 -313 -59 -650 1 -344 8
-433 56 -640 101 -446 258 -802 496 -1128 103 -142 161 -210 317 -371 429
-442 863 -695 1396 -812 119 -26 455 -36 640 -20 198 17 472 93 640 177 258
129 515 387 647 649 88 176 140 376 149 575 l6 116 -32 27 c-18 15 -37 27 -42
27 -25 0 -370 -80 -401 -93 -35 -15 -37 -19 -53 -94 -62 -289 -114 -402 -254
-546 -116 -121 -274 -211 -476 -272 -156 -47 -274 -59 -525 -52 -196 5 -210 7
-325 40 -366 107 -671 287 -959 567 -424 413 -671 907 -758 1515 -20 140 -16
553 6 695 52 338 160 644 325 921 124 208 216 324 441 555 l215 220 42 105
c66 163 168 323 354 558 30 39 49 71 47 84 -6 40 -38 37 -154 -17z"/>
<path d="M3570 5103 c-211 -23 -573 -143 -653 -217 -52 -49 -12 -75 134 -87
137 -11 263 -38 462 -99 155 -48 234 -67 371 -90 272 -45 543 -205 701 -415
250 -333 293 -765 110 -1125 -111 -219 -288 -393 -509 -500 -166 -81 -237 -95
-461 -94 -174 0 -199 2 -290 27 -55 15 -145 49 -200 76 -314 152 -521 439
-636 879 -24 92 -49 132 -84 132 -23 0 -233 -77 -337 -124 -31 -14 -62 -34
-68 -46 -36 -68 122 -490 267 -710 242 -368 604 -616 1033 -707 67 -14 132
-18 310 -18 249 0 340 14 519 77 509 180 911 629 1023 1143 29 133 36 454 14
594 -33 209 -139 470 -263 644 -121 171 -337 362 -533 470 -267 147 -620 221
-910 190z"/>
<path d="M2570 4429 c-380 -37 -711 -189 -965 -444 -258 -258 -399 -520 -462
-860 -26 -139 -23 -399 5 -543 125 -625 563 -1081 1193 -1242 118 -30 250 -39
442 -29 190 10 277 25 425 74 185 62 312 132 312 172 0 26 -48 43 -147 53
-190 18 -268 35 -498 110 -82 27 -195 56 -250 64 -354 54 -613 196 -793 435
-324 431 -284 1021 97 1402 143 144 306 237 511 291 109 29 354 36 475 14 279
-53 527 -220 691 -466 90 -136 147 -272 224 -538 15 -52 28 -77 46 -89 24 -15
30 -14 141 22 64 21 156 57 204 81 71 34 90 48 95 70 14 56 -66 303 -161 495
-248 503 -681 832 -1200 913 -127 19 -276 25 -385 15z"/>
</g>
</svg>
